{
    "asset" : {
        "generator" : "Khronos glTF Blender I/O v1.7.33",
        "version" : "2.0"
    },
    "scene" : 0,
    "scenes" : [
        {
            "name" : "Scene",
            "nodes" : [
                0,
                1,
                2,
                3,
                4,
                5,
                6,
                7
            ]
        }
    ],
    "nodes" : [
        {
            "mesh" : 0,
            "name" : "body"
        },
        {
            "mesh" : 1,
            "name" : "head",
            "rotation" : [
                0,
                0.9999175667762756,
                0,
                -0.012839484959840775
            ],
            "scale" : [
                0.2038140743970871,
                0.2038140743970871,
                0.2038140743970871
            ],
            "translation" : [
                -0.001875343732535839,
                1.6383954286575317,
                -0.0007417500019073486
            ]
        },
        {
            "mesh" : 2,
            "name" : "nose",
            "rotation" : [
                0,
                0.9999175667762756,
                0,
                -0.012839484959840775
            ],
            "scale" : [
                0.015423200093209743,
                0.015407323837280273,
                0.03129206597805023
            ],
            "translation" : [
                -0.009090925566852093,
                1.642816424369812,
                -0.1915007084608078
            ]
        },
        {
            "mesh" : 3,
            "name" : "ear",
            "rotation" : [
                -0.06058640405535698,
                0.7044037580490112,
                -0.7071961760520935,
                0.004272071644663811
            ],
            "scale" : [
                0.04586626961827278,
                0.017793450504541397,
                0.06328704208135605
            ],
            "translation" : [
                -0.18594515323638916,
                1.6893292665481567,
                -0.008427947759628296
            ]
        },
        {
            "mesh" : 4,
            "name" : "legs",
            "scale" : [
                0.09166064858436584,
                0.550568699836731,
                0.1252353936433792
            ],
            "translation" : [
                -0.10748385637998581,
                -0.20985716581344604,
                -0.0661674439907074
            ]
        },
        {
            "mesh" : 5,
            "name" : "legs.001",
            "scale" : [
                0.09166064858436584,
                0.550568699836731,
                0.1252353936433792
            ],
            "translation" : [
                -0.10748385637998581,
                -0.20985716581344604,
                -0.0661674439907074
            ]
        },
        {
            "mesh" : 6,
            "name" : "eyes",
            "rotation" : [
                0,
                0.9999175667762756,
                0,
                -0.012839484959840775
            ],
            "scale" : [
                0.013516615144908428,
                0.022092940285801888,
                0.014332732185721397
            ],
            "translation" : [
                -0.06693784147500992,
                1.6956642866134644,
                -0.17009463906288147
            ]
        },
        {
            "mesh" : 7,
            "name" : "head.001",
            "rotation" : [
                0,
                0.9999175667762756,
                0,
                -0.012839484959840775
            ],
            "scale" : [
                0.2038140743970871,
                0.2038140743970871,
                0.2038140743970871
            ],
            "translation" : [
                -0.001875343732535839,
                1.6383954286575317,
                -0.0007417500019073486
            ]
        }
    ],
    "materials" : [
        {
            "doubleSided" : true,
            "name" : "skin.002",
            "pbrMetallicRoughness" : {
                "baseColorFactor" : [
                    0.6239608526229858,
                    0.3915724456310272,
                    0.24228116869926453,
                    1
                ],
                "metallicFactor" : 0,
                "roughnessFactor" : 0.5
            }
        },
        {
            "doubleSided" : true,
            "name" : "skin.001",
            "pbrMetallicRoughness" : {
                "baseColorFactor" : [
                    0.6239608526229858,
                    0.3915724456310272,
                    0.24228116869926453,
                    1
                ],
                "metallicFactor" : 0,
                "roughnessFactor" : 0.5
            }
        },
        {
            "doubleSided" : true,
            "name" : "noses.001",
            "pbrMetallicRoughness" : {
                "baseColorFactor" : [
                    0.8000000715255737,
                    0.5028064250946045,
                    0.31280001997947693,
                    1
                ],
                "metallicFactor" : 0,
                "roughnessFactor" : 0.5
            }
        },
        {
            "doubleSided" : true,
            "name" : "ears.001",
            "pbrMetallicRoughness" : {
                "baseColorFactor" : [
                    0.800000011920929,
                    0.5028080344200134,
                    0.31279999017715454,
                    1
                ],
                "metallicFactor" : 0,
                "roughnessFactor" : 0.5
            }
        },
        {
            "doubleSided" : true,
            "name" : "skin",
            "pbrMetallicRoughness" : {
                "baseColorFactor" : [
                    0.623960554599762,
                    0.3930167555809021,
                    0.2438424825668335,
                    1
                ],
                "metallicFactor" : 0,
                "roughnessFactor" : 0.5
            }
        },
        {
            "doubleSided" : true,
            "name" : "legs.001",
            "pbrMetallicRoughness" : {
                "baseColorFactor" : [
                    0.7991032600402832,
                    0.061245907098054886,
                    0.05286069214344025,
                    1
                ],
                "metallicFactor" : 0,
                "roughnessFactor" : 0.5
            }
        },
        {
            "doubleSided" : true,
            "name" : "skin.004",
            "pbrMetallicRoughness" : {
                "baseColorFactor" : [
                    0.623960554599762,
                    0.3930167555809021,
                    0.2438424825668335,
                    1
                ],
                "metallicFactor" : 0,
                "roughnessFactor" : 0.5
            }
        },
        {
            "doubleSided" : true,
            "name" : "eyes.003",
            "pbrMetallicRoughness" : {
                "baseColorFactor" : [
                    0.010021527297794819,
                    0.010021527297794819,
                    0.010021527297794819,
                    1
                ],
                "metallicFactor" : 0,
                "roughnessFactor" : 0.5
            }
        },
        {
            "doubleSided" : true,
            "name" : "skin.006",
            "pbrMetallicRoughness" : {
                "baseColorFactor" : [
                    0.6239608526229858,
                    0.3915724456310272,
                    0.24228116869926453,
                    1
                ],
                "metallicFactor" : 0,
                "roughnessFactor" : 0.5
            }
        }
    ],
    "meshes" : [
        {
            "name" : "Vert",
            "primitives" : [
                {
                    "attributes" : {
                        "POSITION" : 0,
                        "NORMAL" : 1
                    },
                    "indices" : 2,
                    "material" : 0
                }
            ]
        },
        {
            "name" : "Cube.007",
            "primitives" : [
                {
                    "attributes" : {
                        "POSITION" : 3,
                        "NORMAL" : 4,
                        "TEXCOORD_0" : 5
                    },
                    "indices" : 6,
                    "material" : 1
                }
            ]
        },
        {
            "name" : "Cube.006",
            "primitives" : [
                {
                    "attributes" : {
                        "POSITION" : 7,
                        "NORMAL" : 8,
                        "TEXCOORD_0" : 9
                    },
                    "indices" : 10,
                    "material" : 2
                }
            ]
        },
        {
            "name" : "Cylinder.001",
            "primitives" : [
                {
                    "attributes" : {
                        "POSITION" : 11,
                        "NORMAL" : 12,
                        "TEXCOORD_0" : 13
                    },
                    "indices" : 14,
                    "material" : 3
                }
            ]
        },
        {
            "name" : "Cylinder.002",
            "primitives" : [
                {
                    "attributes" : {
                        "POSITION" : 15,
                        "NORMAL" : 16,
                        "TEXCOORD_0" : 17
                    },
                    "indices" : 18,
                    "material" : 4
                }
            ]
        },
        {
            "name" : "Cylinder.003",
            "primitives" : [
                {
                    "attributes" : {
                        "POSITION" : 19,
                        "NORMAL" : 20,
                        "TEXCOORD_0" : 21
                    },
                    "indices" : 22,
                    "material" : 5
                },
                {
                    "attributes" : {
                        "POSITION" : 23,
                        "NORMAL" : 24,
                        "TEXCOORD_0" : 25
                    },
                    "indices" : 26,
                    "material" : 6
                }
            ]
        },
        {
            "name" : "Sphere.002",
            "primitives" : [
                {
                    "attributes" : {
                        "POSITION" : 27,
                        "NORMAL" : 28,
                        "TEXCOORD_0" : 29
                    },
                    "indices" : 30,
                    "material" : 7
                }
            ]
        },
        {
            "name" : "Cube.014",
            "primitives" : [
                {
                    "attributes" : {
                        "POSITION" : 31,
                        "NORMAL" : 32,
                        "TEXCOORD_0" : 33
                    },
                    "indices" : 6,
                    "material" : 8
                }
            ]
        }
    ],
    "accessors" : [
        {
            "bufferView" : 0,
            "componentType" : 5126,
            "count" : 3712,
            "max" : [
                1.8952184915542603,
                1.5657103061676025,
                0.34510231018066406
            ],
            "min" : [
                -1.8952184915542603,
                0.13687185943126678,
                -0.4111868441104889
            ],
            "type" : "VEC3"
        },
        {
            "bufferView" : 1,
            "componentType" : 5126,
            "count" : 3712,
            "type" : "VEC3"
        },
        {
            "bufferView" : 2,
            "componentType" : 5123,
            "count" : 5568,
            "type" : "SCALAR"
        },
        {
            "bufferView" : 3,
            "componentType" : 5126,
            "count" : 225,
            "max" : [
                0.9072162508964539,
                1.1263618469238281,
                0.9149051904678345
            ],
            "min" : [
                -0.9058588147163391,
                -0.7822091579437256,
                -0.8971473574638367
            ],
            "type" : "VEC3"
        },
        {
            "bufferView" : 4,
            "componentType" : 5126,
            "count" : 225,
            "type" : "VEC3"
        },
        {
            "bufferView" : 5,
            "componentType" : 5126,
            "count" : 225,
            "type" : "VEC2"
        },
        {
            "bufferView" : 6,
            "componentType" : 5123,
            "count" : 1032,
            "type" : "SCALAR"
        },
        {
            "bufferView" : 7,
            "componentType" : 5126,
            "count" : 19,
            "max" : [
                1.0737888813018799,
                1.0753448009490967,
                0.5818771719932556
            ],
            "min" : [
                -1,
                -1,
                -1.1629493236541748
            ],
            "type" : "VEC3"
        },
        {
            "bufferView" : 8,
            "componentType" : 5126,
            "count" : 19,
            "type" : "VEC3"
        },
        {
            "bufferView" : 9,
            "componentType" : 5126,
            "count" : 19,
            "type" : "VEC2"
        },
        {
            "bufferView" : 10,
            "componentType" : 5123,
            "count" : 60,
            "type" : "SCALAR"
        },
        {
            "bufferView" : 11,
            "componentType" : 5126,
            "count" : 22528,
            "max" : [
                0.9841709136962891,
                1.0000001192092896,
                1.509293794631958
            ],
            "min" : [
                -8.98547649383545,
                -2.0647048950195312,
                -0.9841709136962891
            ],
            "type" : "VEC3"
        },
        {
            "bufferView" : 12,
            "componentType" : 5126,
            "count" : 22528,
            "type" : "VEC3"
        },
        {
            "bufferView" : 13,
            "componentType" : 5126,
            "count" : 22528,
            "type" : "VEC2"
        },
        {
            "bufferView" : 14,
            "componentType" : 5123,
            "count" : 33792,
            "type" : "SCALAR"
        },
        {
            "bufferView" : 15,
            "componentType" : 5126,
            "count" : 516,
            "max" : [
                3.570284366607666,
                1,
                1
            ],
            "min" : [
                -1,
                -1.2272534370422363,
                -1
            ],
            "type" : "VEC3"
        },
        {
            "bufferView" : 16,
            "componentType" : 5126,
            "count" : 516,
            "type" : "VEC3"
        },
        {
            "bufferView" : 17,
            "componentType" : 5126,
            "count" : 516,
            "type" : "VEC2"
        },
        {
            "bufferView" : 18,
            "componentType" : 5123,
            "count" : 1512,
            "type" : "SCALAR"
        },
        {
            "bufferView" : 19,
            "componentType" : 5126,
            "count" : 428,
            "max" : [
                3.570284366607666,
                1,
                1
            ],
            "min" : [
                -1,
                -1.000000238418579,
                -1
            ],
            "type" : "VEC3"
        },
        {
            "bufferView" : 20,
            "componentType" : 5126,
            "count" : 428,
            "type" : "VEC3"
        },
        {
            "bufferView" : 21,
            "componentType" : 5126,
            "count" : 428,
            "type" : "VEC2"
        },
        {
            "bufferView" : 22,
            "componentType" : 5123,
            "count" : 768,
            "type" : "SCALAR"
        },
        {
            "bufferView" : 23,
            "componentType" : 5126,
            "count" : 384,
            "max" : [
                3.570284366607666,
                1,
                1
            ],
            "min" : [
                -1,
                -1.2272534370422363,
                -1
            ],
            "type" : "VEC3"
        },
        {
            "bufferView" : 24,
            "componentType" : 5126,
            "count" : 384,
            "type" : "VEC3"
        },
        {
            "bufferView" : 25,
            "componentType" : 5126,
            "count" : 384,
            "type" : "VEC2"
        },
        {
            "bufferView" : 26,
            "componentType" : 5123,
            "count" : 744,
            "type" : "SCALAR"
        },
        {
            "bufferView" : 27,
            "componentType" : 5126,
            "count" : 559,
            "max" : [
                0.9999997019767761,
                1,
                0.9999994039535522
            ],
            "min" : [
                -0.9999990463256836,
                -1,
                -0.9999987483024597
            ],
            "type" : "VEC3"
        },
        {
            "bufferView" : 28,
            "componentType" : 5126,
            "count" : 559,
            "type" : "VEC3"
        },
        {
            "bufferView" : 29,
            "componentType" : 5126,
            "count" : 559,
            "type" : "VEC2"
        },
        {
            "bufferView" : 30,
            "componentType" : 5123,
            "count" : 2880,
            "type" : "SCALAR"
        },
        {
            "bufferView" : 31,
            "componentType" : 5126,
            "count" : 225,
            "max" : [
                0.9072162508964539,
                1.1263618469238281,
                0.9149051904678345
            ],
            "min" : [
                -0.9058588147163391,
                -0.7822091579437256,
                -0.8971473574638367
            ],
            "type" : "VEC3"
        },
        {
            "bufferView" : 32,
            "componentType" : 5126,
            "count" : 225,
            "type" : "VEC3"
        },
        {
            "bufferView" : 33,
            "componentType" : 5126,
            "count" : 225,
            "type" : "VEC2"
        }
    ],
    "bufferViews" : [
        {
            "buffer" : 0,
            "byteLength" : 44544,
            "byteOffset" : 0
        },
        {
            "buffer" : 0,
            "byteLength" : 44544,
            "byteOffset" : 44544
        },
        {
            "buffer" : 0,
            "byteLength" : 11136,
            "byteOffset" : 89088
        },
        {
            "buffer" : 0,
            "byteLength" : 2700,
            "byteOffset" : 100224
        },
        {
            "buffer" : 0,
            "byteLength" : 2700,
            "byteOffset" : 102924
        },
        {
            "buffer" : 0,
            "byteLength" : 1800,
            "byteOffset" : 105624
        },
        {
            "buffer" : 0,
            "byteLength" : 2064,
            "byteOffset" : 107424
        },
        {
            "buffer" : 0,
            "byteLength" : 228,
            "byteOffset" : 109488
        },
        {
            "buffer" : 0,
            "byteLength" : 228,
            "byteOffset" : 109716
        },
        {
            "buffer" : 0,
            "byteLength" : 152,
            "byteOffset" : 109944
        },
        {
            "buffer" : 0,
            "byteLength" : 120,
            "byteOffset" : 110096
        },
        {
            "buffer" : 0,
            "byteLength" : 270336,
            "byteOffset" : 110216
        },
        {
            "buffer" : 0,
            "byteLength" : 270336,
            "byteOffset" : 380552
        },
        {
            "buffer" : 0,
            "byteLength" : 180224,
            "byteOffset" : 650888
        },
        {
            "buffer" : 0,
            "byteLength" : 67584,
            "byteOffset" : 831112
        },
        {
            "buffer" : 0,
            "byteLength" : 6192,
            "byteOffset" : 898696
        },
        {
            "buffer" : 0,
            "byteLength" : 6192,
            "byteOffset" : 904888
        },
        {
            "buffer" : 0,
            "byteLength" : 4128,
            "byteOffset" : 911080
        },
        {
            "buffer" : 0,
            "byteLength" : 3024,
            "byteOffset" : 915208
        },
        {
            "buffer" : 0,
            "byteLength" : 5136,
            "byteOffset" : 918232
        },
        {
            "buffer" : 0,
            "byteLength" : 5136,
            "byteOffset" : 923368
        },
        {
            "buffer" : 0,
            "byteLength" : 3424,
            "byteOffset" : 928504
        },
        {
            "buffer" : 0,
            "byteLength" : 1536,
            "byteOffset" : 931928
        },
        {
            "buffer" : 0,
            "byteLength" : 4608,
            "byteOffset" : 933464
        },
        {
            "buffer" : 0,
            "byteLength" : 4608,
            "byteOffset" : 938072
        },
        {
            "buffer" : 0,
            "byteLength" : 3072,
            "byteOffset" : 942680
        },
        {
            "buffer" : 0,
            "byteLength" : 1488,
            "byteOffset" : 945752
        },
        {
            "buffer" : 0,
            "byteLength" : 6708,
            "byteOffset" : 947240
        },
        {
            "buffer" : 0,
            "byteLength" : 6708,
            "byteOffset" : 953948
        },
        {
            "buffer" : 0,
            "byteLength" : 4472,
            "byteOffset" : 960656
        },
        {
            "buffer" : 0,
            "byteLength" : 5760,
            "byteOffset" : 965128
        },
        {
            "buffer" : 0,
            "byteLength" : 2700,
            "byteOffset" : 970888
        },
        {
            "buffer" : 0,
            "byteLength" : 2700,
            "byteOffset" : 973588
        },
        {
            "buffer" : 0,
            "byteLength" : 1800,
            "byteOffset" : 976288
        }
    ],
    "buffers" : [
        {
            "byteLength" : 978088,
            "uri" : "data:application/octet-stream;base64,"
        }
    ]
}
