{
    "asset" : {
        "generator" : "Khronos glTF Blender I/O v1.5.17",
        "version" : "2.0"
    },
    "scene" : 0,
    "scenes" : [
        {
            "name" : "Scene",
            "nodes" : [
                0,
                1,
                2
            ]
        }
    ],
    "nodes" : [
        {
            "name" : "Light",
            "rotation" : [
                0.16907575726509094,
                0.7558803558349609,
                -0.27217137813568115,
                0.570947527885437
            ],
            "translation" : [
                4.076245307922363,
                5.903861999511719,
                -1.0054539442062378
            ]
        },
        {
            "name" : "Camera",
            "rotation" : [
                0.483536034822464,
                0.33687159419059753,
                -0.20870360732078552,
                0.7804827094078064
            ],
            "translation" : [
                7.358891487121582,
                4.958309173583984,
                6.925790786743164
            ]
        },
        {
            "mesh" : 0,
            "name" : "rok",
            "scale" : [
                0.9623472690582275,
                0.9623472690582275,
                0.9623472690582275
            ],
            "translation" : [
                -0.002348821610212326,
                0.057828061282634735,
                0.007634290028363466
            ]
        }
    ],
    "materials" : [
        {
            "doubleSided" : true,
            "name" : "shoes",
            "pbrMetallicRoughness" : {
                "baseColorFactor" : [
                    0.7991032600402832,
                    0.7230552434921265,
                    0.1274377405643463,
                    1
                ],
                "metallicFactor" : 0,
                "roughnessFactor" : 0.75
            }
        }
    ],
    "meshes" : [
        {
            "name" : "Vert.002",
            "primitives" : [
                {
                    "attributes" : {
                        "POSITION" : 0,
                        "NORMAL" : 1
                    },
                    "indices" : 2,
                    "material" : 0
                }
            ]
        }
    ],
    "accessors" : [
        {
            "bufferView" : 0,
            "componentType" : 5126,
            "count" : 49152,
            "max" : [
                0.6745813488960266,
                0.7393684983253479,
                0.6279464364051819
            ],
            "min" : [
                -0.6405984163284302,
                -0.11413507908582687,
                -0.6747559309005737
            ],
            "type" : "VEC3"
        },
        {
            "bufferView" : 1,
            "componentType" : 5126,
            "count" : 49152,
            "type" : "VEC3"
        },
        {
            "bufferView" : 2,
            "componentType" : 5123,
            "count" : 73728,
            "type" : "SCALAR"
        }
    ],
    "bufferViews" : [
        {
            "buffer" : 0,
            "byteLength" : 589824,
            "byteOffset" : 0
        },
        {
            "buffer" : 0,
            "byteLength" : 589824,
            "byteOffset" : 589824
        },
        {
            "buffer" : 0,
            "byteLength" : 147456,
            "byteOffset" : 1179648
        }
    ],
    "buffers" : [
        {
            "byteLength" : 1327104,
            "uri" : "data:application/octet-stream;base64,"
        }
    ]
}
