{
    "asset" : {
        "generator" : "Khronos glTF Blender I/O v1.5.17",
        "version" : "2.0"
    },
    "scene" : 0,
    "scenes" : [
        {
            "name" : "Scene",
            "nodes" : [
                0,
                1,
                2
            ]
        }
    ],
    "nodes" : [
        {
            "mesh" : 0,
            "name" : "clothes",
            "scale" : [
                1.117706298828125,
                1.1227810382843018,
                1.1594583988189697
            ],
            "translation" : [
                0.002094822935760021,
                -0.14705820381641388,
                0.0007802135078236461
            ]
        },
        {
            "name" : "Light",
            "rotation" : [
                0.16907575726509094,
                0.7558803558349609,
                -0.27217137813568115,
                0.570947527885437
            ],
            "translation" : [
                4.076245307922363,
                5.903861999511719,
                -1.0054539442062378
            ]
        },
        {
            "name" : "Camera",
            "rotation" : [
                0.483536034822464,
                0.33687159419059753,
                -0.20870360732078552,
                0.7804827094078064
            ],
            "translation" : [
                7.358891487121582,
                4.958309173583984,
                6.925790786743164
            ]
        }
    ],
    "materials" : [
        {
            "doubleSided" : true,
            "name" : "clothes.002",
            "pbrMetallicRoughness" : {
                "baseColorFactor" : [
                    0.6239608526229858,
                    0.09572170674800873,
                    0.011628915555775166,
                    1
                ],
                "metallicFactor" : 0,
                "roughnessFactor" : 0.5
            }
        }
    ],
    "meshes" : [
        {
            "name" : "Vert.004",
            "primitives" : [
                {
                    "attributes" : {
                        "POSITION" : 0,
                        "NORMAL" : 1
                    },
                    "indices" : 2,
                    "material" : 0
                }
            ]
        }
    ],
    "accessors" : [
        {
            "bufferView" : 0,
            "componentType" : 5126,
            "count" : 20180,
            "max" : [
                0.8010056018829346,
                1.4315906763076782,
                0.24576351046562195
            ],
            "min" : [
                -0.8010056018829346,
                0.7262251377105713,
                -0.31373950839042664
            ],
            "type" : "VEC3"
        },
        {
            "bufferView" : 1,
            "componentType" : 5126,
            "count" : 20180,
            "type" : "VEC3"
        },
        {
            "bufferView" : 2,
            "componentType" : 5123,
            "count" : 121872,
            "type" : "SCALAR"
        }
    ],
    "bufferViews" : [
        {
            "buffer" : 0,
            "byteLength" : 242160,
            "byteOffset" : 0
        },
        {
            "buffer" : 0,
            "byteLength" : 242160,
            "byteOffset" : 242160
        },
        {
            "buffer" : 0,
            "byteLength" : 243744,
            "byteOffset" : 484320
        }
    ],
    "buffers" : [
        {
            "byteLength" : 728064,
            "uri" : "data:application/octet-stream;base64,"
        }
    ]
}
