{
    "asset" : {
        "generator" : "Khronos glTF Blender I/O v1.5.17",
        "version" : "2.0"
    },
    "scene" : 0,
    "scenes" : [
        {
            "name" : "Scene",
            "nodes" : [
                0,
                1,
                2
            ]
        }
    ],
    "nodes" : [
        {
            "mesh" : 0,
            "name" : "clothes",
            "scale" : [
                1.0385323762893677,
                1.0385323762893677,
                1.0385323762893677
            ],
            "translation" : [
                0.0017464922275394201,
                -0.04779238998889923,
                -0.0022945203818380833
            ]
        },
        {
            "name" : "Light",
            "rotation" : [
                0.16907575726509094,
                0.7558803558349609,
                -0.27217137813568115,
                0.570947527885437
            ],
            "translation" : [
                4.076245307922363,
                5.903861999511719,
                -1.0054539442062378
            ]
        },
        {
            "name" : "Camera",
            "rotation" : [
                0.483536034822464,
                0.33687159419059753,
                -0.20870360732078552,
                0.7804827094078064
            ],
            "translation" : [
                7.358891487121582,
                4.958309173583984,
                6.925790786743164
            ]
        }
    ],
    "materials" : [
        {
            "doubleSided" : true,
            "name" : "clothes.001",
            "pbrMetallicRoughness" : {
                "baseColorFactor" : [
                    0.7991032600402832,
                    0.7230552434921265,
                    0.1274377405643463,
                    1
                ],
                "metallicFactor" : 0,
                "roughnessFactor" : 0.5
            }
        }
    ],
    "meshes" : [
        {
            "name" : "Vert.001",
            "primitives" : [
                {
                    "attributes" : {
                        "POSITION" : 0,
                        "NORMAL" : 1
                    },
                    "indices" : 2,
                    "material" : 0
                }
            ]
        }
    ],
    "accessors" : [
        {
            "bufferView" : 0,
            "componentType" : 5126,
            "count" : 67584,
            "max" : [
                1.214803695678711,
                1.422632098197937,
                0.46419617533683777
            ],
            "min" : [
                -1.214803695678711,
                0.13575035333633423,
                -0.4943796396255493
            ],
            "type" : "VEC3"
        },
        {
            "bufferView" : 1,
            "componentType" : 5126,
            "count" : 67584,
            "type" : "VEC3"
        },
        {
            "bufferView" : 2,
            "componentType" : 5125,
            "count" : 101376,
            "type" : "SCALAR"
        }
    ],
    "bufferViews" : [
        {
            "buffer" : 0,
            "byteLength" : 811008,
            "byteOffset" : 0
        },
        {
            "buffer" : 0,
            "byteLength" : 811008,
            "byteOffset" : 811008
        },
        {
            "buffer" : 0,
            "byteLength" : 405504,
            "byteOffset" : 1622016
        }
    ],
    "buffers" : [
        {
            "byteLength" : 2027520,
            "uri" : "data:application/octet-stream;base64,"
        }
    ]
}
