{
    "asset" : {
        "generator" : "Khronos glTF Blender I/O v1.5.17",
        "version" : "2.0"
    },
    "scene" : 0,
    "scenes" : [
        {
            "name" : "Scene",
            "nodes" : [
                0,
                1,
                2
            ]
        }
    ],
    "nodes" : [
        {
            "name" : "Light",
            "rotation" : [
                0.16907575726509094,
                0.7558803558349609,
                -0.27217137813568115,
                0.570947527885437
            ],
            "translation" : [
                4.076245307922363,
                5.903861999511719,
                -1.0054539442062378
            ]
        },
        {
            "name" : "Camera",
            "rotation" : [
                0.483536034822464,
                0.33687159419059753,
                -0.20870360732078552,
                0.7804827094078064
            ],
            "translation" : [
                7.358891487121582,
                4.958309173583984,
                6.925790786743164
            ]
        },
        {
            "mesh" : 0,
            "name" : "clothes",
            "scale" : [
                1.0568745136260986,
                1.0568745136260986,
                1.0568745136260986
            ],
            "translation" : [
                -0.0010082237422466278,
                -0.07779643684625626,
                -0.011840969324111938
            ]
        }
    ],
    "materials" : [
        {
            "doubleSided" : true,
            "name" : "clothes",
            "pbrMetallicRoughness" : {
                "baseColorFactor" : [
                    0.03954622149467468,
                    0.7991030812263489,
                    0.6104958057403564,
                    1
                ],
                "metallicFactor" : 0,
                "roughnessFactor" : 0.4000000059604645
            }
        }
    ],
    "meshes" : [
        {
            "name" : "Vert.001",
            "primitives" : [
                {
                    "attributes" : {
                        "POSITION" : 0,
                        "NORMAL" : 1
                    },
                    "indices" : 2,
                    "material" : 0
                }
            ]
        }
    ],
    "accessors" : [
        {
            "bufferView" : 0,
            "componentType" : 5126,
            "count" : 64512,
            "max" : [
                0.35251665115356445,
                1.4993617534637451,
                0.23889946937561035
            ],
            "min" : [
                -0.35250046849250793,
                0.7372785210609436,
                -0.30216383934020996
            ],
            "type" : "VEC3"
        },
        {
            "bufferView" : 1,
            "componentType" : 5126,
            "count" : 64512,
            "type" : "VEC3"
        },
        {
            "bufferView" : 2,
            "componentType" : 5123,
            "count" : 96768,
            "type" : "SCALAR"
        }
    ],
    "bufferViews" : [
        {
            "buffer" : 0,
            "byteLength" : 774144,
            "byteOffset" : 0
        },
        {
            "buffer" : 0,
            "byteLength" : 774144,
            "byteOffset" : 774144
        },
        {
            "buffer" : 0,
            "byteLength" : 193536,
            "byteOffset" : 1548288
        }
    ],
    "buffers" : [
        {
            "byteLength" : 1741824,
            "uri" : "data:application/octet-stream;base64,"
        }
    ]
}
