{
    "asset" : {
        "generator" : "Khronos glTF Blender I/O v1.5.17",
        "version" : "2.0"
    },
    "scene" : 0,
    "scenes" : [
        {
            "name" : "Scene",
            "nodes" : [
                0,
                1,
                2
            ]
        }
    ],
    "nodes" : [
        {
            "name" : "Light",
            "rotation" : [
                0.16907575726509094,
                0.7558803558349609,
                -0.27217137813568115,
                0.570947527885437
            ],
            "translation" : [
                4.076245307922363,
                5.903861999511719,
                -1.0054539442062378
            ]
        },
        {
            "name" : "Camera",
            "rotation" : [
                0.483536034822464,
                0.33687159419059753,
                -0.20870360732078552,
                0.7804827094078064
            ],
            "translation" : [
                7.358891487121582,
                4.958309173583984,
                6.925790786743164
            ]
        },
        {
            "mesh" : 0,
            "name" : "hat",
            "rotation" : [
                -0.004997943062335253,
                0.9960607886314392,
                0.08536432683467865,
                -0.023470932617783546
            ],
            "scale" : [
                0.24382607638835907,
                0.2966899573802948,
                0.23714877665042877
            ],
            "translation" : [
                0.0014288597740232944,
                1.6267390251159668,
                -0.003792479634284973
            ]
        }
    ],
    "materials" : [
        {
            "doubleSided" : true,
            "name" : "hat.001",
            "pbrMetallicRoughness" : {
                "baseColorFactor" : [
                    0.04000132158398628,
                    0.8000000715255737,
                    0.6072788238525391,
                    1
                ],
                "metallicFactor" : 0,
                "roughnessFactor" : 0.5
            }
        }
    ],
    "meshes" : [
        {
            "name" : "Cube.005",
            "primitives" : [
                {
                    "attributes" : {
                        "POSITION" : 0,
                        "NORMAL" : 1,
                        "TEXCOORD_0" : 2
                    },
                    "indices" : 3,
                    "material" : 0
                }
            ]
        }
    ],
    "accessors" : [
        {
            "bufferView" : 0,
            "componentType" : 5126,
            "count" : 1185,
            "max" : [
                0.8666669130325317,
                1.1074014902114868,
                0.8705432415008545
            ],
            "min" : [
                -0.8451170325279236,
                0.41834476590156555,
                -1.9130699634552002
            ],
            "type" : "VEC3"
        },
        {
            "bufferView" : 1,
            "componentType" : 5126,
            "count" : 1185,
            "type" : "VEC3"
        },
        {
            "bufferView" : 2,
            "componentType" : 5126,
            "count" : 1185,
            "type" : "VEC2"
        },
        {
            "bufferView" : 3,
            "componentType" : 5123,
            "count" : 4416,
            "type" : "SCALAR"
        }
    ],
    "bufferViews" : [
        {
            "buffer" : 0,
            "byteLength" : 14220,
            "byteOffset" : 0
        },
        {
            "buffer" : 0,
            "byteLength" : 14220,
            "byteOffset" : 14220
        },
        {
            "buffer" : 0,
            "byteLength" : 9480,
            "byteOffset" : 28440
        },
        {
            "buffer" : 0,
            "byteLength" : 8832,
            "byteOffset" : 37920
        }
    ],
    "buffers" : [
        {
            "byteLength" : 46752,
            "uri" : "data:application/octet-stream;base64,"
        }
    ]
}
