{
    "asset" : {
        "generator" : "Khronos glTF Blender I/O v1.7.33",
        "version" : "2.0"
    },
    "scene" : 0,
    "scenes" : [
        {
            "name" : "Scene",
            "nodes" : [
                0
            ]
        }
    ],
    "nodes" : [
        {
            "mesh" : 0,
            "name" : "hat",
            "rotation" : [
                -0.004997943062335253,
                0.9960607886314392,
                0.08536432683467865,
                -0.023470932617783546
            ],
            "scale" : [
                0.24382607638835907,
                0.2966899573802948,
                0.23714877665042877
            ],
            "translation" : [
                0.0014288597740232944,
                1.6267390251159668,
                -0.003792479634284973
            ]
        }
    ],
    "materials" : [
        {
            "doubleSided" : true,
            "name" : "hat.001",
            "pbrMetallicRoughness" : {
                "baseColorFactor" : [
                    0.04000132158398628,
                    0.8000000715255737,
                    0.6072788238525391,
                    1
                ],
                "metallicFactor" : 0,
                "roughnessFactor" : 0.5
            }
        }
    ],
    "meshes" : [
        {
            "name" : "Cube.005",
            "primitives" : [
                {
                    "attributes" : {
                        "POSITION" : 0,
                        "NORMAL" : 1,
                        "TEXCOORD_0" : 2
                    },
                    "indices" : 3,
                    "material" : 0
                }
            ]
        }
    ],
    "accessors" : [
        {
            "bufferView" : 0,
            "componentType" : 5126,
            "count" : 4317,
            "max" : [
                0.8642668724060059,
                1.1088892221450806,
                0.8677114844322205
            ],
            "min" : [
                -0.8405731320381165,
                0.41834476590156555,
                -1.9130699634552002
            ],
            "type" : "VEC3"
        },
        {
            "bufferView" : 1,
            "componentType" : 5126,
            "count" : 4317,
            "type" : "VEC3"
        },
        {
            "bufferView" : 2,
            "componentType" : 5126,
            "count" : 4317,
            "type" : "VEC2"
        },
        {
            "bufferView" : 3,
            "componentType" : 5123,
            "count" : 17664,
            "type" : "SCALAR"
        }
    ],
    "bufferViews" : [
        {
            "buffer" : 0,
            "byteLength" : 51804,
            "byteOffset" : 0
        },
        {
            "buffer" : 0,
            "byteLength" : 51804,
            "byteOffset" : 51804
        },
        {
            "buffer" : 0,
            "byteLength" : 34536,
            "byteOffset" : 103608
        },
        {
            "buffer" : 0,
            "byteLength" : 35328,
            "byteOffset" : 138144
        }
    ],
    "buffers" : [
        {
            "byteLength" : 173472,
            "uri" : "data:application/octet-stream;base64,"
        }
    ]
}
