{
    "asset" : {
        "generator" : "Khronos glTF Blender I/O v1.7.33",
        "version" : "2.0"
    },
    "scene" : 0,
    "scenes" : [
        {
            "name" : "Scene",
            "nodes" : [
                0
            ]
        }
    ],
    "nodes" : [
        {
            "mesh" : 0,
            "name" : "hat",
            "rotation" : [
                -0.004997943062335253,
                0.9960607886314392,
                0.08536432683467865,
                -0.023470932617783546
            ],
            "scale" : [
                0.24383872747421265,
                0.36546099185943604,
                0.23896373808383942
            ],
            "translation" : [
                0.0014288597740232944,
                1.6267390251159668,
                -0.003792479634284973
            ]
        }
    ],
    "materials" : [
        {
            "doubleSided" : true,
            "name" : "hat.001",
            "pbrMetallicRoughness" : {
                "baseColorFactor" : [
                    0.03954622149467468,
                    0.7991030812263489,
                    0.6104958057403564,
                    1
                ],
                "metallicFactor" : 0,
                "roughnessFactor" : 0.5
            }
        }
    ],
    "meshes" : [
        {
            "name" : "Cube.005",
            "primitives" : [
                {
                    "attributes" : {
                        "POSITION" : 0
                    },
                    "indices" : 1,
                    "material" : 0
                }
            ]
        }
    ],
    "accessors" : [
        {
            "bufferView" : 0,
            "componentType" : 5126,
            "count" : 2946,
            "max" : [
                0.8642668724060059,
                1.1088892221450806,
                0.8677114844322205
            ],
            "min" : [
                -0.8405731320381165,
                0.41834476590156555,
                -1.9130699634552002
            ],
            "type" : "VEC3"
        },
        {
            "bufferView" : 1,
            "componentType" : 5123,
            "count" : 17664,
            "type" : "SCALAR"
        }
    ],
    "bufferViews" : [
        {
            "buffer" : 0,
            "byteLength" : 35352,
            "byteOffset" : 0
        },
        {
            "buffer" : 0,
            "byteLength" : 35328,
            "byteOffset" : 35352
        }
    ],
    "buffers" : [
        {
            "byteLength" : 70680,
            "uri" : "data:application/octet-stream;base64,"
        }
    ]
}
